<mxfile host="app.diagrams.net" modified="2021-07-17T21:11:02.954Z" agent="5.0 (Windows NT 10.0; Win64; x64) AppleWebKit/537.36 (KHTML, like Gecko) Chrome/91.0.4472.124 Safari/537.36 Edg/91.0.864.67" etag="CR47uw74khb-e-U-ofRa" version="14.9.0" type="github">
  <diagram id="C5RBs43oDa-KdzZeNtuy" name="Page-1">
    <mxGraphModel dx="2254" dy="827" grid="1" gridSize="10" guides="1" tooltips="1" connect="1" arrows="1" fold="1" page="1" pageScale="1" pageWidth="827" pageHeight="1169" math="0" shadow="0">
      <root>
        <mxCell id="WIyWlLk6GJQsqaUBKTNV-0" />
        <mxCell id="WIyWlLk6GJQsqaUBKTNV-1" parent="WIyWlLk6GJQsqaUBKTNV-0" />
        <mxCell id="LixP7mh5UtcBW-KexqeE-2" value="" style="edgeStyle=orthogonalEdgeStyle;rounded=0;orthogonalLoop=1;jettySize=auto;html=1;" edge="1" parent="WIyWlLk6GJQsqaUBKTNV-1" source="LixP7mh5UtcBW-KexqeE-0" target="LixP7mh5UtcBW-KexqeE-1">
          <mxGeometry relative="1" as="geometry" />
        </mxCell>
        <mxCell id="LixP7mh5UtcBW-KexqeE-0" value="语法分析" style="rounded=0;whiteSpace=wrap;html=1;" vertex="1" parent="WIyWlLk6GJQsqaUBKTNV-1">
          <mxGeometry x="50" y="140" width="120" height="30" as="geometry" />
        </mxCell>
        <mxCell id="LixP7mh5UtcBW-KexqeE-4" value="" style="edgeStyle=orthogonalEdgeStyle;rounded=0;orthogonalLoop=1;jettySize=auto;html=1;" edge="1" parent="WIyWlLk6GJQsqaUBKTNV-1" source="LixP7mh5UtcBW-KexqeE-1" target="LixP7mh5UtcBW-KexqeE-3">
          <mxGeometry relative="1" as="geometry" />
        </mxCell>
        <mxCell id="LixP7mh5UtcBW-KexqeE-1" value="全局预编译" style="rounded=0;whiteSpace=wrap;html=1;" vertex="1" parent="WIyWlLk6GJQsqaUBKTNV-1">
          <mxGeometry x="50" y="220" width="120" height="30" as="geometry" />
        </mxCell>
        <mxCell id="LixP7mh5UtcBW-KexqeE-49" value="" style="edgeStyle=orthogonalEdgeStyle;rounded=0;orthogonalLoop=1;jettySize=auto;html=1;" edge="1" parent="WIyWlLk6GJQsqaUBKTNV-1" source="LixP7mh5UtcBW-KexqeE-3" target="LixP7mh5UtcBW-KexqeE-48">
          <mxGeometry relative="1" as="geometry" />
        </mxCell>
        <mxCell id="LixP7mh5UtcBW-KexqeE-3" value="解释执行脚本" style="rounded=0;whiteSpace=wrap;html=1;" vertex="1" parent="WIyWlLk6GJQsqaUBKTNV-1">
          <mxGeometry x="50" y="360" width="120" height="30" as="geometry" />
        </mxCell>
        <mxCell id="LixP7mh5UtcBW-KexqeE-5" value="" style="shape=curlyBracket;whiteSpace=wrap;html=1;rounded=1;" vertex="1" parent="WIyWlLk6GJQsqaUBKTNV-1">
          <mxGeometry x="170" y="175" width="34" height="120" as="geometry" />
        </mxCell>
        <mxCell id="LixP7mh5UtcBW-KexqeE-9" value="" style="edgeStyle=orthogonalEdgeStyle;rounded=0;orthogonalLoop=1;jettySize=auto;html=1;" edge="1" parent="WIyWlLk6GJQsqaUBKTNV-1" source="LixP7mh5UtcBW-KexqeE-7" target="LixP7mh5UtcBW-KexqeE-8">
          <mxGeometry relative="1" as="geometry" />
        </mxCell>
        <mxCell id="LixP7mh5UtcBW-KexqeE-24" value="" style="edgeStyle=orthogonalEdgeStyle;rounded=0;orthogonalLoop=1;jettySize=auto;html=1;" edge="1" parent="WIyWlLk6GJQsqaUBKTNV-1" source="LixP7mh5UtcBW-KexqeE-7" target="LixP7mh5UtcBW-KexqeE-23">
          <mxGeometry relative="1" as="geometry" />
        </mxCell>
        <mxCell id="LixP7mh5UtcBW-KexqeE-7" value="创建全局执行上下文&lt;br&gt;压入调用栈" style="rounded=0;whiteSpace=wrap;html=1;" vertex="1" parent="WIyWlLk6GJQsqaUBKTNV-1">
          <mxGeometry x="203" y="165" width="120" height="30" as="geometry" />
        </mxCell>
        <mxCell id="LixP7mh5UtcBW-KexqeE-11" value="" style="edgeStyle=orthogonalEdgeStyle;rounded=0;orthogonalLoop=1;jettySize=auto;html=1;" edge="1" parent="WIyWlLk6GJQsqaUBKTNV-1" source="LixP7mh5UtcBW-KexqeE-8" target="LixP7mh5UtcBW-KexqeE-10">
          <mxGeometry relative="1" as="geometry" />
        </mxCell>
        <mxCell id="LixP7mh5UtcBW-KexqeE-8" value="变量提升" style="rounded=0;whiteSpace=wrap;html=1;" vertex="1" parent="WIyWlLk6GJQsqaUBKTNV-1">
          <mxGeometry x="203" y="215" width="120" height="30" as="geometry" />
        </mxCell>
        <mxCell id="LixP7mh5UtcBW-KexqeE-10" value="函数提升" style="rounded=0;whiteSpace=wrap;html=1;" vertex="1" parent="WIyWlLk6GJQsqaUBKTNV-1">
          <mxGeometry x="203" y="275" width="120" height="30" as="geometry" />
        </mxCell>
        <mxCell id="LixP7mh5UtcBW-KexqeE-17" value="" style="edgeStyle=orthogonalEdgeStyle;rounded=0;orthogonalLoop=1;jettySize=auto;html=1;" edge="1" parent="WIyWlLk6GJQsqaUBKTNV-1" source="LixP7mh5UtcBW-KexqeE-18" target="LixP7mh5UtcBW-KexqeE-20">
          <mxGeometry relative="1" as="geometry" />
        </mxCell>
        <mxCell id="LixP7mh5UtcBW-KexqeE-18" value="创建函数执行上下文&lt;br&gt;压入调用栈" style="rounded=0;whiteSpace=wrap;html=1;" vertex="1" parent="WIyWlLk6GJQsqaUBKTNV-1">
          <mxGeometry x="516" y="202.5" width="120" height="30" as="geometry" />
        </mxCell>
        <mxCell id="LixP7mh5UtcBW-KexqeE-19" value="" style="edgeStyle=orthogonalEdgeStyle;rounded=0;orthogonalLoop=1;jettySize=auto;html=1;" edge="1" parent="WIyWlLk6GJQsqaUBKTNV-1" source="LixP7mh5UtcBW-KexqeE-20" target="LixP7mh5UtcBW-KexqeE-21">
          <mxGeometry relative="1" as="geometry" />
        </mxCell>
        <mxCell id="LixP7mh5UtcBW-KexqeE-20" value="变量提升" style="rounded=0;whiteSpace=wrap;html=1;" vertex="1" parent="WIyWlLk6GJQsqaUBKTNV-1">
          <mxGeometry x="516" y="252.5" width="120" height="30" as="geometry" />
        </mxCell>
        <mxCell id="LixP7mh5UtcBW-KexqeE-21" value="函数提升" style="rounded=0;whiteSpace=wrap;html=1;" vertex="1" parent="WIyWlLk6GJQsqaUBKTNV-1">
          <mxGeometry x="516" y="312.5" width="120" height="30" as="geometry" />
        </mxCell>
        <mxCell id="LixP7mh5UtcBW-KexqeE-22" value="" style="shape=curlyBracket;whiteSpace=wrap;html=1;rounded=1;size=0.5;" vertex="1" parent="WIyWlLk6GJQsqaUBKTNV-1">
          <mxGeometry x="170" y="322.5" width="34" height="105" as="geometry" />
        </mxCell>
        <mxCell id="LixP7mh5UtcBW-KexqeE-23" value="创建全局对象" style="rounded=0;whiteSpace=wrap;html=1;" vertex="1" parent="WIyWlLk6GJQsqaUBKTNV-1">
          <mxGeometry x="360" y="165" width="120" height="30" as="geometry" />
        </mxCell>
        <mxCell id="LixP7mh5UtcBW-KexqeE-25" value="活动对象" style="rounded=0;whiteSpace=wrap;html=1;" vertex="1" parent="WIyWlLk6GJQsqaUBKTNV-1">
          <mxGeometry x="670" y="147.5" width="120" height="30" as="geometry" />
        </mxCell>
        <mxCell id="LixP7mh5UtcBW-KexqeE-27" value="this指向" style="rounded=0;whiteSpace=wrap;html=1;" vertex="1" parent="WIyWlLk6GJQsqaUBKTNV-1">
          <mxGeometry x="670" y="202.5" width="120" height="30" as="geometry" />
        </mxCell>
        <mxCell id="LixP7mh5UtcBW-KexqeE-30" value="" style="shape=curlyBracket;whiteSpace=wrap;html=1;rounded=1;" vertex="1" parent="WIyWlLk6GJQsqaUBKTNV-1">
          <mxGeometry x="636" y="157.5" width="34" height="105" as="geometry" />
        </mxCell>
        <mxCell id="LixP7mh5UtcBW-KexqeE-37" value="" style="edgeStyle=orthogonalEdgeStyle;rounded=0;orthogonalLoop=1;jettySize=auto;html=1;" edge="1" parent="WIyWlLk6GJQsqaUBKTNV-1" source="LixP7mh5UtcBW-KexqeE-31" target="LixP7mh5UtcBW-KexqeE-36">
          <mxGeometry relative="1" as="geometry" />
        </mxCell>
        <mxCell id="LixP7mh5UtcBW-KexqeE-31" value="局部预编译" style="rounded=0;whiteSpace=wrap;html=1;" vertex="1" parent="WIyWlLk6GJQsqaUBKTNV-1">
          <mxGeometry x="360" y="255" width="120" height="30" as="geometry" />
        </mxCell>
        <mxCell id="LixP7mh5UtcBW-KexqeE-32" value="" style="shape=curlyBracket;whiteSpace=wrap;html=1;rounded=1;" vertex="1" parent="WIyWlLk6GJQsqaUBKTNV-1">
          <mxGeometry x="480" y="216.25" width="34" height="107.5" as="geometry" />
        </mxCell>
        <mxCell id="LixP7mh5UtcBW-KexqeE-34" value="函数" style="rounded=0;whiteSpace=wrap;html=1;" vertex="1" parent="WIyWlLk6GJQsqaUBKTNV-1">
          <mxGeometry x="203" y="312.5" width="120" height="30" as="geometry" />
        </mxCell>
        <mxCell id="LixP7mh5UtcBW-KexqeE-35" value="" style="shape=curlyBracket;whiteSpace=wrap;html=1;rounded=1;" vertex="1" parent="WIyWlLk6GJQsqaUBKTNV-1">
          <mxGeometry x="326" y="275" width="34" height="107.5" as="geometry" />
        </mxCell>
        <mxCell id="LixP7mh5UtcBW-KexqeE-39" value="" style="edgeStyle=orthogonalEdgeStyle;rounded=0;orthogonalLoop=1;jettySize=auto;html=1;" edge="1" parent="WIyWlLk6GJQsqaUBKTNV-1" source="LixP7mh5UtcBW-KexqeE-36" target="LixP7mh5UtcBW-KexqeE-38">
          <mxGeometry relative="1" as="geometry" />
        </mxCell>
        <mxCell id="LixP7mh5UtcBW-KexqeE-36" value="执行脚本" style="rounded=0;whiteSpace=wrap;html=1;" vertex="1" parent="WIyWlLk6GJQsqaUBKTNV-1">
          <mxGeometry x="360" y="313.75" width="120" height="30" as="geometry" />
        </mxCell>
        <mxCell id="LixP7mh5UtcBW-KexqeE-38" value="函数退栈" style="rounded=0;whiteSpace=wrap;html=1;" vertex="1" parent="WIyWlLk6GJQsqaUBKTNV-1">
          <mxGeometry x="360" y="370" width="120" height="30" as="geometry" />
        </mxCell>
        <mxCell id="LixP7mh5UtcBW-KexqeE-40" value="作用域链" style="rounded=0;whiteSpace=wrap;html=1;" vertex="1" parent="WIyWlLk6GJQsqaUBKTNV-1">
          <mxGeometry x="670" y="250" width="120" height="30" as="geometry" />
        </mxCell>
        <mxCell id="LixP7mh5UtcBW-KexqeE-47" value="" style="edgeStyle=orthogonalEdgeStyle;rounded=0;orthogonalLoop=1;jettySize=auto;html=1;" edge="1" parent="WIyWlLk6GJQsqaUBKTNV-1" source="LixP7mh5UtcBW-KexqeE-41" target="LixP7mh5UtcBW-KexqeE-46">
          <mxGeometry relative="1" as="geometry" />
        </mxCell>
        <mxCell id="LixP7mh5UtcBW-KexqeE-41" value="变量" style="rounded=0;whiteSpace=wrap;html=1;" vertex="1" parent="WIyWlLk6GJQsqaUBKTNV-1">
          <mxGeometry x="203" y="410" width="120" height="30" as="geometry" />
        </mxCell>
        <mxCell id="LixP7mh5UtcBW-KexqeE-46" value="申请内存" style="rounded=0;whiteSpace=wrap;html=1;" vertex="1" parent="WIyWlLk6GJQsqaUBKTNV-1">
          <mxGeometry x="360" y="410" width="120" height="30" as="geometry" />
        </mxCell>
        <mxCell id="LixP7mh5UtcBW-KexqeE-48" value="垃圾收集" style="rounded=0;whiteSpace=wrap;html=1;" vertex="1" parent="WIyWlLk6GJQsqaUBKTNV-1">
          <mxGeometry x="50" y="470" width="120" height="30" as="geometry" />
        </mxCell>
      </root>
    </mxGraphModel>
  </diagram>
</mxfile>
